<svg width="28" height="28" viewBox="0 0 28 28" fill="none" xmlns="http://www.w3.org/2000/svg">
<g id="Build circle" clip-path="url(#clip0_57_755)">
<g id="Group">
<g id="Group_2">
<path id="Vector" fill-rule="evenodd" clip-rule="evenodd" d="M13.9997 2.3335C7.55967 2.3335 2.33301 7.56016 2.33301 14.0002C2.33301 20.4402 7.55967 25.6668 13.9997 25.6668C20.4397 25.6668 25.6663 20.4402 25.6663 14.0002C25.6663 7.56016 20.4397 2.3335 13.9997 2.3335ZM13.9997 23.3335C8.85467 23.3335 4.66634 19.1452 4.66634 14.0002C4.66634 8.85516 8.85467 4.66683 13.9997 4.66683C19.1447 4.66683 23.333 8.85516 23.333 14.0002C23.333 19.1452 19.1447 23.3335 13.9997 23.3335Z" fill="black"/>
<path id="Vector_2" fill-rule="evenodd" clip-rule="evenodd" d="M15.738 13.2768C16.2397 11.8535 15.9363 10.1968 14.793 9.05347C13.498 7.75847 11.538 7.53681 10.0097 8.36514L12.7513 11.1068L11.1063 12.7518L8.36465 10.0101C7.53632 11.5501 7.75798 13.4985 9.05298 14.7935C10.1963 15.9368 11.853 16.2401 13.2763 15.7385L17.2547 19.7168C17.488 19.9501 17.8497 19.9501 18.083 19.7168L19.7163 18.0835C19.9497 17.8501 19.9497 17.4885 19.7163 17.2551L15.738 13.2768Z" fill="black"/>
</g>
</g>
</g>
<defs>
<clipPath id="clip0_57_755">
<rect width="28" height="28" fill="white"/>
</clipPath>
</defs>
</svg>
