<svg width="28" height="28" viewBox="0 0 28 28" fill="none" xmlns="http://www.w3.org/2000/svg">
<g id="history" clip-path="url(#clip0_57_645)">
<path id="Vector" d="M15.47 3.50017C9.53162 3.33683 4.66662 8.1085 4.66662 14.0002H2.57829C2.05329 14.0002 1.79662 14.6302 2.16995 14.9918L5.42495 18.2585C5.65829 18.4918 6.01995 18.4918 6.25329 18.2585L9.50829 14.9918C9.86995 14.6302 9.61329 14.0002 9.08829 14.0002H6.99995C6.99995 9.45017 10.71 5.77517 15.2833 5.8335C19.6233 5.89183 23.275 9.5435 23.3333 13.8835C23.3916 18.4452 19.7166 22.1668 15.1666 22.1668C13.2883 22.1668 11.55 21.5252 10.1733 20.4402C9.70662 20.0785 9.05329 20.1135 8.63329 20.5335C8.14329 21.0235 8.17829 21.8518 8.72662 22.2718C10.5 23.6718 12.7283 24.5002 15.1666 24.5002C21.0583 24.5002 25.83 19.6352 25.6666 13.6968C25.515 8.22517 20.9416 3.65183 15.47 3.50017ZM14.875 9.3335C14.3966 9.3335 14 9.73017 14 10.2085V14.5018C14 14.9102 14.2216 15.2952 14.5716 15.5052L18.2116 17.6635C18.6316 17.9085 19.1683 17.7685 19.4133 17.3602C19.6583 16.9402 19.5183 16.4035 19.11 16.1585L15.75 14.1635V10.1968C15.75 9.73017 15.3533 9.3335 14.875 9.3335Z" fill="#CCCCCC" fill-opacity="0.3"/>
</g>
<defs>
<clipPath id="clip0_57_645">
<rect width="28" height="28" fill="white"/>
</clipPath>
</defs>
</svg>
