<svg width="28" height="28" viewBox="0 0 28 28" fill="none" xmlns="http://www.w3.org/2000/svg">
<g id="House" clip-path="url(#clip0_57_749)">
<path id="Vector" d="M11.3756 22.7492V17.4991C11.3756 17.267 11.4678 17.0444 11.6319 16.8803C11.796 16.7163 12.0186 16.6241 12.2506 16.6241H15.7506C15.9827 16.6241 16.2053 16.7163 16.3694 16.8803C16.5335 17.0444 16.6256 17.267 16.6256 17.4991V22.7492C16.6256 22.9812 16.7178 23.2038 16.8819 23.3679C17.046 23.5319 17.2685 23.6241 17.5005 23.6242L22.7499 23.6249C22.8648 23.6249 22.9786 23.6023 23.0848 23.5583C23.1909 23.5143 23.2874 23.4499 23.3687 23.3686C23.4499 23.2874 23.5144 23.1909 23.5584 23.0847C23.6024 22.9786 23.625 22.8648 23.625 22.7499V12.637C23.625 12.5151 23.5995 12.3945 23.5502 12.2831C23.5009 12.1716 23.4288 12.0716 23.3386 11.9896L14.5892 4.03424C14.4282 3.8878 14.2183 3.80665 14.0006 3.80664C13.7829 3.80663 13.5731 3.88777 13.412 4.0342L4.6614 11.9896C4.57119 12.0716 4.49912 12.1716 4.4498 12.2831C4.40048 12.3946 4.375 12.5151 4.375 12.637V22.7499C4.375 22.8648 4.39764 22.9786 4.44162 23.0847C4.4856 23.1909 4.55006 23.2874 4.63132 23.3686C4.71258 23.4499 4.80906 23.5143 4.91523 23.5583C5.0214 23.6023 5.13519 23.6249 5.25011 23.6249L10.5008 23.6242C10.7328 23.6241 10.9553 23.5319 11.1194 23.3679C11.2835 23.2038 11.3756 22.9812 11.3756 22.7492Z" stroke="#02111B" stroke-width="2" stroke-linecap="round" stroke-linejoin="round"/>
</g>
<defs>
<clipPath id="clip0_57_749">
<rect width="28" height="28" fill="white" transform="matrix(-1 0 0 1 28 0)"/>
</clipPath>
</defs>
</svg>
