<svg width="28" height="28" viewBox="0 0 28 28" fill="none" xmlns="http://www.w3.org/2000/svg">
<g id="User">
<path id="Vector" d="M13.5852 3.5C10.4473 3.50324 7.43888 4.75121 5.22005 6.97005C3.00121 9.18888 1.75324 12.1973 1.75 15.3352C1.75 18.4975 2.98025 21.469 5.215 23.7037C6.31155 24.8065 7.61599 25.6807 9.05277 26.2758C10.4896 26.8709 12.0301 27.175 13.5852 27.1705C16.7232 27.1673 19.7316 25.9193 21.9505 23.7005C24.1693 21.4816 25.4173 18.4732 25.4205 15.3352C25.4173 12.1973 24.1693 9.18888 21.9505 6.97005C19.7316 4.75121 16.7232 3.50324 13.5852 3.5ZM6.43125 23.6267C7.24925 22.5625 8.297 21.6968 9.49635 21.0941C10.6957 20.4914 12.0157 20.1673 13.3577 20.146C13.3997 20.1477 13.44 20.1582 13.482 20.1582H13.5223C13.5608 20.1582 13.5957 20.1477 13.6342 20.146C14.9949 20.1691 16.3322 20.5039 17.5432 21.1246C18.7543 21.7453 19.8069 22.6354 20.6203 23.7265C18.6525 25.3872 16.1601 26.2973 13.5852 26.2955C10.9563 26.3002 8.41478 25.3521 6.43125 23.6267ZM13.4872 19.2622C13.4435 19.2622 13.4015 19.2692 13.3577 19.271C12.3363 19.2364 11.3686 18.8047 10.6604 18.0678C9.95226 17.3309 9.55945 16.3468 9.5655 15.3247C9.56733 14.8074 9.67127 14.2955 9.87137 13.8184C10.0715 13.3413 10.3638 12.9084 10.7316 12.5446C11.0993 12.1807 11.5353 11.893 12.0145 11.698C12.4937 11.503 13.0067 11.4046 13.524 11.4082C14.0413 11.4101 14.5532 11.514 15.0303 11.7141C15.5074 11.9142 15.9403 12.2065 16.3042 12.5743C16.668 12.9421 16.9557 13.3781 17.1507 13.8572C17.3457 14.3364 17.4442 14.8494 17.4405 15.3667C17.4405 17.4877 15.743 19.2115 13.636 19.2727C13.587 19.271 13.538 19.2622 13.4872 19.2622ZM21.2695 23.1385C19.9163 21.3528 17.9915 20.0852 15.8165 19.5475C16.5734 19.1328 17.2047 18.5221 17.6444 17.7794C18.0841 17.0368 18.3159 16.1895 18.3155 15.3265C18.3134 14.6943 18.1867 14.0687 17.9426 13.4856C17.6984 12.9025 17.3416 12.3732 16.8926 11.9281C16.4437 11.4831 15.9113 11.1309 15.3261 10.8919C14.7408 10.6528 14.1142 10.5315 13.482 10.535C12.8498 10.5371 12.2242 10.6638 11.6411 10.908C11.058 11.1521 10.5287 11.5089 10.0836 11.9578C9.63857 12.4068 9.28643 12.9392 9.04737 13.5244C8.80832 14.1097 8.68704 14.7363 8.6905 15.3685C8.69372 16.2235 8.92631 17.0619 9.36403 17.7964C9.80174 18.5308 10.4285 19.1344 11.179 19.544C9.04068 20.0692 7.14143 21.299 5.78725 23.0352C3.75614 20.9895 2.61951 18.2215 2.62675 15.3387C2.62999 12.4329 3.78577 9.64701 5.84051 7.59226C7.89526 5.53752 10.6812 4.38174 13.587 4.3785C16.4928 4.38174 19.2787 5.53752 21.3335 7.59226C23.3882 9.64701 24.544 12.4329 24.5473 15.3387C24.5465 16.7914 24.2563 18.2293 23.6935 19.5686C23.1307 20.9078 22.3067 22.1214 21.2695 23.1385Z" fill="#02111B" stroke="#02111B"/>
</g>
</svg>
